<svg xmlns="http://www.w3.org/2000/svg" viewBox="0 0 70.63 79.52"><defs><style>.cls-1{isolation:isolate;}.cls-2{fill:#75bd38;}.cls-3{fill:#ffffd0;}.cls-4{fill:#b1c0c0;}.cls-17,.cls-4,.cls-5,.cls-8{mix-blend-mode:multiply;}.cls-5{fill:#c5d6d6;}.cls-6{fill:#e8f2de;}.cls-7{fill:#ccc;}.cls-8{fill:#a5a7ab;opacity:0.5;}.cls-9{fill:#474656;}.cls-10{fill:#fff;}.cls-11{fill:#d7d7d7;}.cls-12{fill:#bebebe;}.cls-13{fill:#83828d;}.cls-14{fill:#8ac757;}.cls-15{fill:#b37e10;}.cls-16{fill:#f65138;}.cls-17{fill:#969696;opacity:0.55;}</style></defs><title>harga_1</title><g class="cls-1"><g id="Layer_2" data-name="Layer 2"><g id="Layer_1-2" data-name="Layer 1"><rect class="cls-2" x="42.21" y="30.38" width="15.53" height="31.59" transform="translate(-11.95 74.35) rotate(-67.2)"/><path class="cls-3" d="M38,38.11l-2.26,5.38c1,.55,2.72,1.42,1.89,4.45l19.49,8.19c1.67-2.89,3.65-2.07,4.69-1.71l2.25-5.35c-1-.5-3-1.39-2-4.75L43.23,36.39C41.28,40,38.77,38.47,38,38.11Z"/><path class="cls-2" d="M43.68,43.53a1.91,1.91,0,1,1-1-2.5A1.91,1.91,0,0,1,43.68,43.53Z"/><path class="cls-2" d="M59,50a1.91,1.91,0,1,1-1-2.5A1.92,1.92,0,0,1,59,50Z"/><path class="cls-2" d="M54.42,48a4.79,4.79,0,1,1-2.56-6.27A4.79,4.79,0,0,1,54.42,48Z"/><path class="cls-3" d="M51.67,48.17A1.57,1.57,0,0,0,51,46.29a5.18,5.18,0,0,1-.47-.23l.76-1.82a.71.71,0,0,1,.1,1l1.09.46a1.67,1.67,0,0,0-.74-2.59l.07-.15a.42.42,0,0,0-.77-.32l-.05.12A1.75,1.75,0,0,0,48.37,44c-.25.65-.46,1.5,1,2.51l-.76,1.81c-.56-.52,0-1.32,0-1.32l-1.26-.53c-.3.56-.72,1.68,1,2.58l-.13.31a.42.42,0,0,0,.23.53.41.41,0,0,0,.54-.21l.13-.3C50.37,49.82,51.12,49.53,51.67,48.17Zm-2.2-3.66a.92.92,0,0,1,1-.59l-.68,1.63C49.23,45,49.47,44.51,49.47,44.51Zm-.08,4.12.7-1.66A.91.91,0,0,1,49.39,48.63Z"/><rect class="cls-4" x="42.21" y="30.38" width="15.53" height="31.59" transform="translate(-11.95 74.35) rotate(-67.2)"/><rect class="cls-2" x="38.94" y="54.95" width="31.59" height="15.53" transform="translate(-0.87 0.77) rotate(-0.8)"/><path class="cls-3" d="M40.56,60.11l.08,5.83c1.14.1,3.06.21,3.51,3.32L65.29,69c.37-3.32,2.52-3.36,3.61-3.44l-.08-5.82c-1.12-.05-3.33-.05-3.74-3.54l-20.45.28C44.27,60.5,41.38,60.14,40.56,60.11Z"/><path class="cls-2" d="M47.9,62.81A1.91,1.91,0,1,1,46,60.93,1.91,1.91,0,0,1,47.9,62.81Z"/><path class="cls-2" d="M64.55,62.58a1.91,1.91,0,1,1-1.93-1.89A1.91,1.91,0,0,1,64.55,62.58Z"/><path class="cls-2" d="M59.55,62.65a4.79,4.79,0,1,1-4.85-4.72A4.79,4.79,0,0,1,59.55,62.65Z"/><path class="cls-3" d="M57.08,63.87c0-1.28-1.41-1.44-1.41-1.44l-.53,0,0-2a.7.7,0,0,1,.51.92h1.19a1.68,1.68,0,0,0-1.71-2.09V59.1a.42.42,0,0,0-.84,0v.14c-1.91.14-1.92,1.39-1.89,2.1s.18,1.56,1.94,1.89l0,2C53.63,65,53.79,64,53.79,64l-1.37,0c0,.64,0,1.83,1.94,2v.33a.41.41,0,0,0,.43.4.41.41,0,0,0,.41-.41V66C56.55,65.9,57.12,65.33,57.08,63.87ZM53.6,61.39a.94.94,0,0,1,.68-.94l0,1.77C53.57,61.91,53.6,61.39,53.6,61.39Zm1.58,3.81,0-1.8A.91.91,0,0,1,55.18,65.2Z"/><rect class="cls-5" x="38.94" y="54.95" width="31.59" height="15.53" transform="translate(-0.87 0.77) rotate(-0.8)"/><polygon class="cls-5" points="49.27 37.45 38.42 32.89 32.41 47.21 49.27 54.3 49.27 37.45"/><polygon class="cls-5" points="49.27 55.02 38.83 55.17 39.05 70.69 49.27 70.55 49.27 55.02"/><rect class="cls-2" x="35.86" y="49.86" width="31.59" height="15.53" transform="translate(-17.65 23.19) rotate(-21.7)"/><path class="cls-6" d="M37.49,60.25l2.15,5.41c1.11-.31,2.94-.89,4.46,1.86L63.75,59.7c-.83-3.23,1.15-4,2.15-4.51l-2.15-5.4c-1.06.36-3.13,1.14-4.76-2L40,55.38C41.1,59.29,38.26,60,37.49,60.25Z"/><path class="cls-2" d="M45.31,60.15a1.91,1.91,0,1,1-2.48-1.07A1.91,1.91,0,0,1,45.31,60.15Z"/><path class="cls-2" d="M60.78,54a1.91,1.91,0,1,1-2.48-1.07A1.91,1.91,0,0,1,60.78,54Z"/><path class="cls-2" d="M56.14,55.84a4.79,4.79,0,1,1-6.22-2.68A4.8,4.8,0,0,1,56.14,55.84Z"/><path class="cls-6" d="M54.42,57.79a1.57,1.57,0,0,0-1.85-.8,4.83,4.83,0,0,1-.49.17l-.76-1.81a.69.69,0,0,1,.81.66l1.1-.46a1.68,1.68,0,0,0-2.37-1.29l-.06-.15a.42.42,0,0,0-.77.32l0,.13a1.75,1.75,0,0,0-1,2.65c.29.63.75,1.38,2.5,1l.76,1.81c-.76,0-1-.91-1-.91l-1.27.53c.2.61.7,1.69,2.54,1.11l.13.3a.41.41,0,0,0,.76-.32l-.12-.29C54.69,59.87,55,59.13,54.42,57.79Zm-4.15-1a.93.93,0,0,1,.28-1.13l.68,1.64C50.43,57.29,50.27,56.79,50.27,56.79Zm2.88,3-.69-1.67A.92.92,0,0,1,53.15,59.74Z"/><polygon class="cls-4" points="46.98 51.13 34.11 56.25 39.85 70.68 46.98 67.84 46.98 51.13"/><path class="cls-7" d="M30.91,26.37l-18.73-.09V22.14a2.79,2.79,0,0,1,2.59-3l13.55.07a2.81,2.81,0,0,1,2.59,3Z"/><path class="cls-8" d="M12.18,22.55v3.73l18.73.09V22.74C27.24,22.68,14.51,22.57,12.18,22.55Z"/><path class="cls-9" d="M41,79.52l-39-.2A2.15,2.15,0,0,1,0,77V26a2.13,2.13,0,0,1,2-2.26l39,.19a2.16,2.16,0,0,1,2,2.29v51A2.13,2.13,0,0,1,41,79.52Z"/><polygon class="cls-10" points="40.27 75.97 2.75 75.79 2.74 27.27 40.27 27.46 40.27 75.97"/><rect class="cls-11" x="5.73" y="60.16" width="3.55" height="11.43"/><rect class="cls-12" x="12.73" y="56.6" width="3.55" height="14.99"/><rect class="cls-13" x="19.73" y="49.7" width="3.55" height="21.89"/><rect class="cls-14" x="26.73" y="51.62" width="3.55" height="19.97"/><rect class="cls-15" x="33.73" y="44.57" width="3.55" height="27.02"/><polygon class="cls-16" points="7.72 54.24 7.29 53.48 14.23 49.56 21.38 41.38 28.35 44.04 35.15 34.6 35.86 35.11 28.66 45.09 21.63 42.41 14.72 50.28 7.72 54.24"/><path class="cls-16" d="M8.82,53.86a1.31,1.31,0,1,1-1.31-1.31A1.31,1.31,0,0,1,8.82,53.86Z"/><path class="cls-16" d="M15.82,49.9a1.31,1.31,0,1,1-1.31-1.31A1.31,1.31,0,0,1,15.82,49.9Z"/><circle class="cls-16" cx="21.33" cy="42.19" r="1.31"/><circle class="cls-16" cx="28.5" cy="44.42" r="1.31"/><circle class="cls-16" cx="35.5" cy="34.97" r="1.31"/><polygon class="cls-17" points="43.01 48.94 43.01 35.96 33.75 32.1 43.01 48.94"/><path class="cls-15" d="M12.71,1.33v17.6A1.32,1.32,0,0,0,14,20.26H28.58l5.17,11.91,5.17-11.91H53.46a1.33,1.33,0,0,0,1.34-1.33V1.33A1.34,1.34,0,0,0,53.46,0H14A1.33,1.33,0,0,0,12.71,1.33Z"/><path class="cls-10" d="M23.74,13.3c0,1.45-.56,2.29-1.69,2.52v1.56h-1V15.87a2.14,2.14,0,0,1-1.59-.73,3.58,3.58,0,0,1-.55-2.22v-.65h1.68v.81c0,.9.23,1.35.68,1.35a.6.6,0,0,0,.53-.24,1.59,1.59,0,0,0,.16-.81,2.51,2.51,0,0,0-.93-1.87l-.43-.39-.48-.43A3.51,3.51,0,0,1,18.91,8c0-1.56.7-2.38,2.11-2.47V4.06h1V5.61a1.77,1.77,0,0,1,1,.61,3.46,3.46,0,0,1,.55,2.21V9H22V8.35a2.58,2.58,0,0,0-.15-1A.52.52,0,0,0,21.31,7a.67.67,0,0,0-.54.21,1.17,1.17,0,0,0-.17.71,2,2,0,0,0,.72,1.49l.95.87A4.07,4.07,0,0,1,23.74,13.3Z"/><path class="cls-10" d="M26.16,15.9V6.3a1.53,1.53,0,0,1-.65.42,2.43,2.43,0,0,1-.82.16V5.54a2.44,2.44,0,0,0,1.09-.47,2.4,2.4,0,0,0,.78-1H28V15.9Z"/><path class="cls-10" d="M34.38,15.19a2.39,2.39,0,0,1-2,.85,2.39,2.39,0,0,1-2.05-.85,4.12,4.12,0,0,1-.63-2.49V7.05a3.61,3.61,0,0,1,.64-2.34,2.47,2.47,0,0,1,2-.79,2.46,2.46,0,0,1,2,.79A3.61,3.61,0,0,1,35,7.05V12.7A4.12,4.12,0,0,1,34.38,15.19Zm-2.06-.7a.76.76,0,0,0,.66-.34,2.84,2.84,0,0,0,.23-1.41V7c0-.88-.21-1.37-.61-1.48l-.39,0a.67.67,0,0,0-.51.26A2,2,0,0,0,31.45,7v5.77a3,3,0,0,0,.22,1.42A.73.73,0,0,0,32.32,14.49Z"/><path class="cls-10" d="M41.17,15.19a2.39,2.39,0,0,1-2,.85,2.36,2.36,0,0,1-2-.85,4,4,0,0,1-.64-2.49V7.05a3.61,3.61,0,0,1,.64-2.34,2.47,2.47,0,0,1,2-.79,2.46,2.46,0,0,1,2,.79,3.61,3.61,0,0,1,.64,2.34V12.7A4.12,4.12,0,0,1,41.17,15.19Zm-2.06-.7a.76.76,0,0,0,.66-.34A2.84,2.84,0,0,0,40,12.74V7c0-.88-.21-1.37-.61-1.48l-.39,0a.67.67,0,0,0-.51.26A2,2,0,0,0,38.25,7v5.77a3,3,0,0,0,.21,1.42A.73.73,0,0,0,39.11,14.49Z"/><path class="cls-10" d="M48,15.19a2.39,2.39,0,0,1-2,.85,2.36,2.36,0,0,1-2-.85,4,4,0,0,1-.64-2.49V7.05a3.61,3.61,0,0,1,.64-2.34,3,3,0,0,1,4.07,0,3.61,3.61,0,0,1,.64,2.34V12.7A4.12,4.12,0,0,1,48,15.19Zm-2.06-.7a.76.76,0,0,0,.66-.34,2.84,2.84,0,0,0,.23-1.41V7c0-.88-.21-1.37-.61-1.48l-.39,0a.67.67,0,0,0-.51.26A2,2,0,0,0,45,7v5.77a3,3,0,0,0,.21,1.42A.73.73,0,0,0,45.9,14.49Z"/></g></g></g></svg>