<svg xmlns="http://www.w3.org/2000/svg" viewBox="0 0 79.56 65.74"><defs><style>.cls-1{isolation:isolate;}.cls-2{fill:#75bd38;}.cls-3{fill:#ffffd0;}.cls-4{fill:#b1c0c0;}.cls-11,.cls-12,.cls-4,.cls-5{mix-blend-mode:multiply;}.cls-5{fill:#c5d6d6;}.cls-6{fill:#b37e10;}.cls-7{fill:#e4e4e4;}.cls-8{fill:#fff;}.cls-9{fill:#1db2cc;}.cls-10{fill:#f65138;}.cls-11{fill:#c4c4c4;}.cls-12{fill:#d0d0d0;}.cls-13{fill:#e8f2de;}</style></defs><title>infalsi</title><g class="cls-1"><g id="Layer_2" data-name="Layer 2"><g id="Layer_1-2" data-name="Layer 1"><rect class="cls-2" x="47.99" y="29.51" width="19.35" height="39.37" transform="translate(-10.03 83.29) rotate(-67.2)"/><path class="cls-3" d="M42.78,39.15,40,45.85c1.25.69,3.39,1.78,2.34,5.54L66.6,61.61c2.09-3.6,4.56-2.58,5.84-2.13l2.81-6.68c-1.25-.61-3.78-1.72-2.5-5.91L49.26,37C46.83,41.45,43.7,39.6,42.78,39.15Z"/><path class="cls-2" d="M49.82,45.9a2.38,2.38,0,1,1-1.27-3.12A2.39,2.39,0,0,1,49.82,45.9Z"/><path class="cls-2" d="M68.94,53.94a2.38,2.38,0,1,1-1.26-3.11A2.36,2.36,0,0,1,68.94,53.94Z"/><path class="cls-2" d="M63.21,51.53A6,6,0,1,1,60,43.72,6,6,0,0,1,63.21,51.53Z"/><path class="cls-3" d="M59.78,51.69a2,2,0,0,0-.9-2.34l-.59-.29,1-2.26a.87.87,0,0,1,.12,1.3l1.37.58s1.45-1.89-.92-3.24l.08-.19a.52.52,0,0,0-1-.4l-.07.16c-2.25-.79-2.88.63-3.2,1.46s-.56,1.87,1.28,3.13L56,51.85c-.7-.64,0-1.65,0-1.65l-1.57-.66c-.37.7-.9,2.09,1.23,3.22l-.16.38a.5.5,0,0,0,.28.66.49.49,0,0,0,.67-.26l.16-.36C58.16,53.75,59.09,53.38,59.78,51.69ZM57,47.13a1.15,1.15,0,0,1,1.24-.74l-.85,2C56.74,47.7,57,47.13,57,47.13Zm-.1,5.13.87-2.07A1.14,1.14,0,0,1,56.94,52.26Z"/><rect class="cls-4" x="47.99" y="29.51" width="19.35" height="39.37" transform="translate(-10.03 83.29) rotate(-67.2)"/><rect class="cls-2" x="6.01" y="45.6" width="39.37" height="19.35" transform="translate(-0.77 0.36) rotate(-0.8)"/><path class="cls-3" d="M8,52l.1,7.26c1.42.13,3.81.27,4.37,4.14l26.34-.37c.47-4.13,3.14-4.18,4.51-4.28l-.1-7.24c-1.4-.07-4.16-.07-4.67-4.43l-25.48.36C12.67,52.51,9.06,52.07,8,52Z"/><path class="cls-2" d="M17.18,55.39a2.38,2.38,0,1,1-2.41-2.34A2.38,2.38,0,0,1,17.18,55.39Z"/><path class="cls-2" d="M37.93,55.1a2.38,2.38,0,1,1-2.41-2.34A2.38,2.38,0,0,1,37.93,55.1Z"/><path class="cls-2" d="M31.71,55.19a6,6,0,1,1-6.05-5.88A6,6,0,0,1,31.71,55.19Z"/><path class="cls-3" d="M28.63,56.71c0-1.59-1.76-1.79-1.76-1.79q-.36,0-.66,0l0-2.45a.87.87,0,0,1,.63,1.15l1.48,0s.58-2.31-2.13-2.6v-.2a.51.51,0,0,0-.52-.5.51.51,0,0,0-.51.51V51c-2.38.17-2.39,1.73-2.35,2.61s.23,2,2.42,2.36l0,2.45c-.9-.32-.69-1.5-.69-1.5l-1.71,0c-.06.79,0,2.28,2.42,2.46v.41a.52.52,0,0,0,.53.5.51.51,0,0,0,.51-.51v-.4C28,59.24,28.68,58.53,28.63,56.71Zm-4.34-3.09a1.15,1.15,0,0,1,.85-1.17l0,2.21C24.25,54.28,24.29,53.62,24.29,53.62Zm2,4.75,0-2.25A1.14,1.14,0,0,1,26.26,58.37Z"/><rect class="cls-5" x="6.01" y="45.6" width="39.37" height="19.35" transform="translate(-0.77 0.36) rotate(-0.8)"/><rect class="cls-6" x="10.38" y="14.46" width="59.06" height="34.73"/><rect class="cls-7" x="13.62" y="17.64" width="52.58" height="28.38"/><rect class="cls-8" x="17.86" y="25.62" width="44.09" height="8.82" rx="2.25"/><rect class="cls-9" x="19.64" y="27.99" width="8.72" height="4.07"/><rect class="cls-9" x="30.11" y="27.99" width="8.72" height="4.07"/><rect class="cls-9" x="40.58" y="27.99" width="8.72" height="4.07"/><rect class="cls-9" x="51.05" y="27.99" width="8.72" height="4.07"/><rect class="cls-8" x="17.86" y="37.46" width="13.5" height="1.8"/><rect class="cls-10" x="17.86" y="20.09" width="26.53" height="3.14"/><rect class="cls-8" x="34.13" y="37.46" width="17.07" height="1.8"/><rect class="cls-8" x="53.35" y="37.46" width="9.9" height="1.8"/><rect class="cls-8" x="17.86" y="41.3" width="10.14" height="1.8"/><rect class="cls-8" x="30.11" y="41.3" width="8.98" height="1.8"/><rect class="cls-8" x="41.03" y="41.3" width="5.71" height="1.8"/><rect class="cls-8" x="48.81" y="41.3" width="14.44" height="1.8"/><path class="cls-11" d="M58.39,23s10.17,10.6,11,11.6V25.17l-11-3.51C60.16,23.78,56.66,20.82,58.39,23Z"/><path class="cls-6" d="M40.45,1.14v15a1.14,1.14,0,0,0,1.14,1.13H52.5L58.39,23l5.89-5.72H75.2a1.14,1.14,0,0,0,1.13-1.13v-15A1.14,1.14,0,0,0,75.2,0H41.59A1.14,1.14,0,0,0,40.45,1.14Z"/><path class="cls-8" d="M49.85,10.2h1.36v1.33H46.74V10.2h1.4V7.53h-1.4v-1a6,6,0,0,0,2.54-.93h.57Z"/><path class="cls-8" d="M57,8.57c0,1.83-.55,3.06-2.51,3.06s-2.52-1.23-2.52-3.06.56-3.06,2.52-3.06S57,6.74,57,8.57Zm-3.34-.43V9c0,1,.23,1.48.83,1.48s.81-.44.81-1.48V8.14c0-1-.21-1.47-.81-1.47S53.62,7.1,53.62,8.14Z"/><path class="cls-8" d="M62.7,8.57c0,1.83-.55,3.06-2.51,3.06s-2.52-1.23-2.52-3.06.56-3.06,2.52-3.06S62.7,6.74,62.7,8.57Zm-3.34-.43V9c0,1,.23,1.48.83,1.48S61,10,61,9V8.14c0-1-.21-1.47-.81-1.47S59.36,7.1,59.36,8.14Z"/><path class="cls-8" d="M66.6,7.06a1.58,1.58,0,0,1-3.15,0,1.58,1.58,0,0,1,3.15,0Zm-2.09-.15v.28c0,.43.15.74.52.74s.51-.31.51-.74V6.91c0-.43-.13-.75-.51-.75S64.51,6.48,64.51,6.91ZM66,11.53H65l3.6-5.91h.94Zm5.19-1.43a1.58,1.58,0,0,1-3.16,0,1.58,1.58,0,0,1,3.16,0ZM69.09,10v.28c0,.43.15.75.52.75s.5-.32.5-.75V10c0-.43-.13-.74-.5-.74S69.09,9.52,69.09,10Z"/><path class="cls-12" d="M39.38,33.7s-13.07,4.55-16.44,6.22c-4.29,2.12-6.2,7.26-10.55,9.28H45.72Z"/><rect class="cls-2" x="2.18" y="39.25" width="39.37" height="19.35" transform="translate(-16.54 11.56) rotate(-21.7)"/><path class="cls-13" d="M4.21,52.2,6.9,59c1.37-.38,3.66-1.11,5.56,2.31l24.48-9.74c-1-4,1.44-5,2.67-5.62l-2.68-6.73c-1.32.44-3.9,1.43-5.93-2.46L7.33,46.13C8.71,51,5.18,51.87,4.21,52.2Z"/><path class="cls-2" d="M14,52.08a2.37,2.37,0,1,1-3.09-1.33A2.38,2.38,0,0,1,14,52.08Z"/><path class="cls-2" d="M33.23,44.41a2.37,2.37,0,1,1-3.08-1.34A2.37,2.37,0,0,1,33.23,44.41Z"/><path class="cls-2" d="M27.45,46.71a6,6,0,1,1-7.75-3.34A6,6,0,0,1,27.45,46.71Z"/><path class="cls-13" d="M25.31,49.14a2,2,0,0,0-2.3-1,5,5,0,0,1-.62.21l-.95-2.26a.87.87,0,0,1,1,.83l1.37-.57s-.33-2.36-3-1.61l-.07-.19a.51.51,0,0,0-.67-.26.5.5,0,0,0-.29.66l.07.16c-2.14,1-1.58,2.5-1.21,3.3s.94,1.72,3.13,1.29L22.77,52c-.95,0-1.2-1.13-1.2-1.13L20,51.48c.24.76.86,2.11,3.15,1.38l.16.38a.51.51,0,0,0,.67.27.52.52,0,0,0,.29-.67l-.16-.36C25.65,51.74,26,50.81,25.31,49.14Zm-5.17-1.25a1.16,1.16,0,0,1,.34-1.4l.86,2C20.34,48.51,20.14,47.89,20.14,47.89Zm3.59,3.68-.87-2.08A1.14,1.14,0,0,1,23.73,51.57Z"/></g></g></g></svg>