<?xml version="1.0" encoding="utf-8"?>
<!-- Generator: Adobe Illustrator 23.0.0, SVG Export Plug-In . SVG Version: 6.00 Build 0)  -->
<svg version="1.1" id="Capa_1" xmlns="http://www.w3.org/2000/svg" xmlns:xlink="http://www.w3.org/1999/xlink" x="0px" y="0px"
	 viewBox="0 0 512 512" style="enable-background:new 0 0 512 512;" xml:space="preserve">
<style type="text/css">
	.st0{fill:#B37E10;}
	.st1{fill:#FFFFFF;}
</style>
<rect x="229.1" y="346.1" class="st0" width="53.8" height="165.9"/>
<path class="st0" d="M485.3,0H26.7C11.9,0,0,11.9,0,26.7v315.4c0,14.8,11.9,26.7,26.7,26.7h458.7c14.7,0,26.7-11.9,26.7-26.7V26.7
	C512,11.9,500.1,0,485.3,0"/>
<g>
	<polygon class="st1" points="161.6,101.4 161.6,171 142.4,171 142.4,101.4 118,101.4 118,84.7 186.1,84.7 186.1,101.4 	"/>
	<path class="st1" d="M255.3,171l-8-18.6h-36.1l-8,18.6h-20.5l37.2-86.2h18.6l37.2,86.2H255.3z M229.2,110.4l-10.8,25h21.6
		L229.2,110.4z"/>
	<polygon class="st1" points="334.2,84.7 357.4,84.7 330.5,126.3 359.6,171 336.2,171 317.8,142.6 299.6,171 276.4,171 305.3,126.8 
		278.3,84.7 301.4,84.7 317.8,110.3 	"/>
	<polygon class="st1" points="160.5,197.8 160.5,214.7 120.6,214.7 120.6,233.3 158.5,233.3 158.5,250.2 120.6,250.2 120.6,284 
		101.3,284 101.3,197.8 	"/>
	<path class="st1" d="M246.8,226.4c0,13.8-5.5,22.7-16.4,26.8l21.8,30.8h-23.7l-19.1-27.5h-13.3V284h-19.2v-86.2h32.7
		c13.4,0,22.9,2.3,28.7,6.8C243.9,209.1,246.8,216.4,246.8,226.4 M223.6,236.7c2.4-2.1,3.6-5.5,3.6-10.2s-1.2-7.8-3.7-9.6
		c-2.5-1.7-6.8-2.6-13-2.6h-14.4v25.5h14.1C216.7,239.9,221.2,238.8,223.6,236.7"/>
	<polygon class="st1" points="328.7,197.8 328.7,214.9 285.7,214.9 285.7,232.7 324.3,232.7 324.3,249.1 285.7,249.1 285.7,267 
		330,267 330,284 266.5,284 266.5,197.8 	"/>
	<polygon class="st1" points="409.3,197.8 409.3,214.9 366.4,214.9 366.4,232.7 405,232.7 405,249.1 366.4,249.1 366.4,267 
		410.7,267 410.7,284 347.2,284 347.2,197.8 	"/>
	<path class="st1" d="M465.9,334.2H46.1c-6.4,0-11.5-5.2-11.5-11.5V46.1c0-6.4,5.2-11.5,11.5-11.5h419.8c6.4,0,11.5,5.1,11.5,11.5
		v276.5C477.4,329,472.3,334.2,465.9,334.2 M57.6,311.1h396.8V57.6H57.6V311.1z"/>
</g>
</svg>
