<svg xmlns="http://www.w3.org/2000/svg" viewBox="0 0 73.34 85.93"><defs><style>.cls-1{fill:#ffd64b;}.cls-2{fill:#fff;}.cls-3{fill:#868686;}.cls-4{fill:#f2b241;}.cls-5{fill:#fcc083;}.cls-6{fill:#faecd0;}.cls-7{fill:#b37e10;}.cls-8{fill:#75bd38;}.cls-9{fill:#e8f2de;}.cls-10{fill:#de955f;}.cls-11{fill:#474656;}</style></defs><title>tukar</title><g id="Layer_2" data-name="Layer 2"><g id="Layer_1-2" data-name="Layer 1"><path class="cls-1" d="M51.55,16.91C44.83,17,39.4,23.1,39.4,30.62A14,14,0,0,0,46,42.77l1.59.94c0,.12,0,3.28,0,3.4h8v-3.4l1.58-.94A14,14,0,0,0,63.7,30.62C63.7,23.1,58.27,17,51.55,16.91Z"/><path class="cls-2" d="M49.72,33.09c-.54-.36-1.2-.26-1.95.31-1.69,1.28-1.83,2.23-1.65,2.8a2,2,0,0,0,2.15,1.11,1.29,1.29,0,0,0,1.28-1,1.69,1.69,0,0,0-.66-1.87,1.4,1.4,0,0,0-1.72.64l.35.33c.35-.48.83-.68,1.18-.5s.5.66.4,1.32c-.07.48-.68.58-.87.6-.67.06-1.5-.23-1.68-.77s.37-1.36,1.48-2.2c.6-.46,1.08-.55,1.45-.3,1.63,1.11,1.34,12,1.09,14.62l.46.05C51.07,47.81,51.93,34.59,49.72,33.09Z"/><path class="cls-2" d="M55.47,33.4c-.75-.57-1.41-.67-1.95-.31-2.21,1.5-1.35,14.72-1.31,15.11l.46-.05c-.25-2.63-.54-13.51,1.08-14.62.39-.25.86-.16,1.46.3,1.11.84,1.66,1.64,1.48,2.2s-1,.83-1.67.77c-.19,0-.81-.12-.88-.6-.09-.66.06-1.15.4-1.32s.83,0,1.18.5l.35-.33a1.4,1.4,0,0,0-1.72-.64,1.69,1.69,0,0,0-.66,1.87,1.29,1.29,0,0,0,1.28,1,2,2,0,0,0,2.15-1.11C57.3,35.63,57.16,34.68,55.47,33.4Z"/><path class="cls-3" d="M55.24,46.46H47.82c-.56,0-.73.51-.76,1.21h9C56,46.91,55.87,46.46,55.24,46.46Z"/><path class="cls-3" d="M49.11,52.78a1.7,1.7,0,0,0,1.52,1.51h2a1.7,1.7,0,0,0,1.52-1.56,2.67,2.67,0,0,0,1.51-1.79H47.4C47.72,51.88,48.36,52.69,49.11,52.78Z"/><path class="cls-3" d="M47.09,48.74c0,.38.06.77.07,1.13h0v0h8.71a2.18,2.18,0,0,0,0-.25v.25h0c0-.41.05-.78.08-1.13Z"/><path class="cls-2" d="M56,47.67h-9c0,.33,0,.7,0,1.07H56A10.66,10.66,0,0,0,56,47.67Z"/><path class="cls-2" d="M47.17,49.87a4.45,4.45,0,0,0,.23,1.07h8.26a4,4,0,0,0,.22-1.07Z"/><path class="cls-4" d="M47.17,49.87h0a2.53,2.53,0,0,1,0,.27Z"/><path class="cls-4" d="M55.89,50.14a2.45,2.45,0,0,0,0-.27h0Z"/><rect class="cls-1" x="66.5" y="28.93" width="6.83" height="2.62" rx="1.3"/><rect class="cls-1" x="29.9" y="28.93" width="6.83" height="2.62" rx="1.3"/><rect class="cls-1" x="63.01" y="18.18" width="6.83" height="2.62" rx="1.3" transform="translate(1.23 42.77) rotate(-36)"/><rect class="cls-1" x="33.4" y="39.69" width="6.83" height="2.62" rx="1.3" transform="matrix(0.81, -0.59, 0.59, 0.81, -17.07, 29.47)"/><rect class="cls-1" x="53.86" y="11.53" width="6.83" height="2.62" rx="1.3" transform="translate(27.37 63.35) rotate(-72)"/><rect class="cls-1" x="44.65" y="9.42" width="2.62" height="6.83" rx="1.3" transform="matrix(0.95, -0.31, 0.31, 0.95, -1.72, 14.83)"/><rect class="cls-1" x="35.5" y="16.07" width="2.62" height="6.83" rx="1.3" transform="translate(-0.59 37.82) rotate(-54)"/><rect class="cls-1" x="65.11" y="37.58" width="2.62" height="6.83" rx="1.3" transform="translate(-5.79 70.64) rotate(-54)"/><path class="cls-5" d="M57.3,44.5l-1.76-.71v2.67a10.59,10.59,0,0,1-2.42,5.7,10.73,10.73,0,0,1-3.58,2.35c-.06,0-.91.2-1-4.15,0-1.91,0-4.21-.46-5.35-1.71-3.85-3.32-3-4.1-2.25a2.19,2.19,0,0,0-.37,1.4,61.82,61.82,0,0,1,1.08,6.9c.14,1.55-.27,6.27-.21,7.82a10.74,10.74,0,0,0,1.35,4.55,24.38,24.38,0,0,1,2.06,5.77,22.11,22.11,0,0,1-.37,8.87c-.15.53-.3,1.12-.5,1.63,1.66,2.67,9.14-.68,9.14-.68-.31-4.63-.37-10.34-.37-10.34.68-4.69,3.79-11.19,3.79-11.19.62-2-.85-3.18-1.23-6.55,0-.42.36-3,.25-4.69A2,2,0,0,0,57.3,44.5Z"/><path class="cls-6" d="M44.39,46s-.78-2.45.14-3.08c1.17-.82,2.17,1.52,2.23,1.94C46.76,44.84,46.76,46.45,44.39,46Z"/><rect class="cls-7" x="45.09" y="68.73" width="13" height="17.2"/><rect class="cls-8" x="-1.3" y="35.32" width="29.91" height="14.7" transform="translate(-30.31 34.04) rotate(-61.14)"/><path class="cls-9" d="M22.44,32.23,17.6,29.56C17,30.45,16,32,13.23,30.89L3.56,48.42C6.12,50.29,5.15,52.07,4.7,53l4.82,2.65c.57-.89,1.6-2.71,4.67-1.41l9.35-17C20.37,35.1,22,32.89,22.44,32.23Z"/><path class="cls-8" d="M16.78,37a1.8,1.8,0,1,1,2.45-.71A1.8,1.8,0,0,1,16.78,37Z"/><path class="cls-8" d="M9.17,50.81a1.8,1.8,0,1,1,2.45-.71A1.81,1.81,0,0,1,9.17,50.81Z"/><path class="cls-8" d="M11.45,46.67a4.53,4.53,0,1,1,6.16-1.79A4.54,4.54,0,0,1,11.45,46.67Z"/><path class="cls-9" d="M15.83,41.4a1.48,1.48,0,0,0-1.87.38,4.85,4.85,0,0,1-.3.41l-1.57-1a.66.66,0,0,1,1,.07l.61-.95a1.59,1.59,0,0,0-2.54.28L11,40.51a.39.39,0,0,0-.54.13.4.4,0,0,0,.12.54l.11.07a1.65,1.65,0,0,0,.69,2.58c.56.33,1.33.66,2.5-.56l1.57,1c-.57.44-1.24-.18-1.24-.18l-.69,1.1c.48.36,1.45.93,2.56-.52l.27.17a.4.4,0,0,0,.42-.67L16.53,44A1.66,1.66,0,0,0,15.83,41.4Zm-3.77,1.48a.88.88,0,0,1-.39-1l1.41.9C12.46,43.18,12.06,42.88,12.06,42.88Zm3.84.72-1.45-.91A.87.87,0,0,1,15.9,43.6Z"/><path class="cls-10" d="M7.22,39.22c-.18.36-.36.71-.55,1.05-2.15-1.45-4-4.3.24-9.49,0,0,5.62-6.49,4.33,1.2C11.24,32,8.05,37.59,7.22,39.22Z"/><path class="cls-5" d="M18.77,41.29s-2,.88-4.55-4.87a21.22,21.22,0,0,0-4.44-6.48l-3,4.62.35,3.51.44.49-.33.66A17.49,17.49,0,0,1,6,41.33l-.6-.47L2.32,36.59a4.35,4.35,0,0,1-.55-4.07c1.53-4.15,4.59-13,3.54-14.71,0,0-.12-3.15-.18-4.43,0,0,5.57-4.73,6.86-2.63,0,0,.78,8.4,1.33,9.26,1.48,2.33,3.12,5.29,3.05,8.93,0,0-.3,1.76,1.58,5.36C21.36,40.84,18.77,41.29,18.77,41.29Z"/><path class="cls-6" d="M16.14,38.27a.74.74,0,0,0,0,.92c.46.63,1.36,1.7,2.13,1.51,1.1-.27.78-2,.46-2.85a.76.76,0,0,0-.79-.5A2.63,2.63,0,0,0,16.14,38.27Z"/><rect class="cls-11" x="2.54" width="13.3" height="18.47"/></g></g></svg>