<svg xmlns="http://www.w3.org/2000/svg" viewBox="0 0 85.63 70.6"><defs><style>.cls-1{fill:#fff;}.cls-2{fill:#2494c6;}.cls-3{fill:#1db2cc;}.cls-4{fill:#e5e5e5;}.cls-5{fill:#ffd64b;}.cls-6{fill:#b37e10;}.cls-7{fill:#f65138;}</style></defs><title>world</title><g id="Layer_2" data-name="Layer 2"><g id="Layer_1-2" data-name="Layer 1"><path class="cls-1" d="M46.67,61.83a24,24,0,0,1-2.83.74A24,24,0,0,0,46.67,61.83Z"/><path class="cls-1" d="M40.59,63c-.47,0-1,0-1.43,0C39.64,63,40.12,63,40.59,63Z"/><path class="cls-1" d="M43.63,62.61c-.39.07-.77.14-1.16.19C42.86,62.75,43.24,62.68,43.63,62.61Z"/><path class="cls-1" d="M42.05,62.85c-.35,0-.69.08-1,.1C41.36,62.93,41.7,62.89,42.05,62.85Z"/><path class="cls-1" d="M48.12,61.3q-.65.26-1.32.48Q47.48,61.56,48.12,61.3Z"/><path class="cls-2" d="M58.21,53.63c-.21.4-.06.26,1.15-1.61-.3.46-.62.91-1,1.36Z"/><path class="cls-3" d="M60,28.62c-.56-.19-1.15-.11-1.71-.27-.32-.1-.31-.3-.31-.59s-.31-.59-.64-.72a2.34,2.34,0,0,1-1.18-1c-.19-.33-.92-1.41-1.27-.66s-.65,1.34-1.58,1.3A1.52,1.52,0,0,1,52,25.2c0-.9,1.21-.85,1.11-1.8s-1.32-1.64-2.13-2.09c0,0-.58-.32-.5-.37.26-.17,1,.11,1.2.24.5.26,1.21,1.32,1.87.91s-.75-1.54-1.06-1.7-.82-.13-1.07-.43-.2-.65-.33-.95a3.13,3.13,0,0,0-2.24-1.5c-.62-.11-1.45-.47-1.51-1.17l-.62-.22c-.74.35-1.43.79-2.17,1.12-.33.15-1,.48-1.34.24-.59-.39.11-1.55-.36-2.06s-1.12-.06-1.55-.06c-.11,0-.52-.13-.58,0s.08.34.13.46c.2.46.17.89-.48.79a1.88,1.88,0,0,1-1.17-.84l-1.07.46c.59,1.42-3.09-.09-3.28.63-.06.24.38.52.57.51s.38-.26.49-.16.25.8.27,1.09c0,.05,0,.44.07.36.59-.56,1.34-.86,1.94-1.4a1.76,1.76,0,0,1,.66-.49c.33-.08.65.23.87.44a4.14,4.14,0,0,1,1.54,3.06c0,.17-.1.53-.35.49s-.53-.66-.75-.89c-.47-.47-1.72-1-2.09-.13-.25.6.61.89,1,1.08.14.07.43.17.48.35s-.51.38-.65.4c-.76.1-1.33-.53-1.85-1s-.24.42-.05.63c.05.06.24.21.18.3s-.7.18-.88.19a6,6,0,0,0-3.08,1.09,8.63,8.63,0,0,0-1.64,1.5l-.09.11a15.09,15.09,0,0,1-.8,2.55c-.21.43-.31.18-.32-.18,0-.82.2-1.82-.32-2.54-.94-1.29-3.07.55-3.77,1.24s-1.51,1.7-.84,2.52,1.36-.36,2-.43a1.25,1.25,0,0,1,.78.17c-.39.37-.82.7-1.23,1.06-.18.17-.31.33,0,.42s.8,0,1,.3,0,.63-.1.85c-.19.53-.54,1.76,0,2.22.39.33,1.37-.1,1.78-.19C31.77,32,34,32.06,35.26,34a3.65,3.65,0,0,0,.59.91,3.66,3.66,0,0,0,1,.56,1.51,1.51,0,0,1,.73.48c.23.39-.17.88-.34,1.2-.28.52-.87,1.41-.76,2a.19.19,0,0,0,.27.16,8.73,8.73,0,0,1,4.66,1.44,1.87,1.87,0,0,1,.95,1.48c0,.9-1,1.45-1.58,2a5.64,5.64,0,0,0-2.06,3.19c-.25,1.22-1.38,1.69-2.52,1.86-1,3.51-3.32,2.95-3.32,2.95-.25.64-.64,1.75-1.41,1.94-.32.08-.68-.08-.92.21-.49.58-.26,1.53-.14,2.2.07.38.45,1.64-.19,1.74A1.23,1.23,0,0,1,29,57.49a7.43,7.43,0,0,1-.06-2.86,9.27,9.27,0,0,0-.33-3.51,4,4,0,0,1-.36-2.32c.13-.36.48-.52.73-.79a3,3,0,0,0,.69-1.35c.16-.66.23-1.69-.38-2.17s-1.47-.59-1.81-1.23c-.2-.39.13-.7.32-1a1.69,1.69,0,0,0,.08-1.66c-.39-.79-1.38-1.35-1.58-2.23s1-1.88,1.6-2.46.9-.89,1.32-1.36a4,4,0,0,0,.82-1.1c.11-.26-.06-.34-.3-.29a4.24,4.24,0,0,1-1.62.19,2.17,2.17,0,0,1-1.25-.67,11,11,0,0,0-.24-1.51,1,1,0,0,0-.27-.53c-.31-.21-.53-.21-.74-.58a4.18,4.18,0,0,0-.56-.93,3.38,3.38,0,0,0-.79-.57c-.51-.29-.92-.59-.83-1.24.16-1.11,1-2,1.22-3.14.07-.31.11-1.22-.41-.69a3.38,3.38,0,0,0-.61,1c-.09.2-.22.53-.43.62-.36.16-.1-.93-.07-1,.61-2,2.34-3.09,3.83-4.38.13-.11,1.05-.8.91-1a1.67,1.67,0,0,1-1-.33A24.05,24.05,0,0,0,15.59,43.85a24,24,0,0,0,42.62,9.78c.26-.47,1-1.72,1.15-1.61-.27-.3-.54-.59-1-.38a3.34,3.34,0,0,0-.92.8c-.8.86-1.51,1.79-2.36,2.6-.42.4-.87.76-1.26,1.18a5.86,5.86,0,0,1-.81.84c-.59.43-1-1.14-1.09-1.47a2.42,2.42,0,0,1,1-2.26c.43-.39,1.51-.91,1.56-1.55s-.73-1.3-.47-2c.15-.41.67-.53,1-.84a2.49,2.49,0,0,0,.58-1.25,3.63,3.63,0,0,1,.3-1c.17-.28.49-.46.67-.75a2,2,0,0,0,.15-2.39c-.21-.23-.67-.37-.77-.7s.21-.44.37-.57c.51-.41,1.14-.85.93-1.6s-.76.11-1.12.08-.34-1-.42-1.39-1.34.16-1.52.21c-.75.21-1.87.57-2.53-.06a5.91,5.91,0,0,1-.91-2.12,13.54,13.54,0,0,0-1.59-2.26c-.41-.61.54-.42.9-.56.71-.28.83-1.12.84-1.79s-.1-1.21-.14-1.82a2.21,2.21,0,0,1,.12-1.11c.25-.48.94-.31,1.36-.49s.33-.48.37-.79c.07-.47.37-.55.79-.66a11.32,11.32,0,0,1,2.45-.74.64.64,0,0,1,.67.49c0,.22,0,.74.14.93s.29,0,.39.1a4.18,4.18,0,0,1,1.17,1.2c.11.14.32.53.54.55s.44-.28.59-.37c.38-.25,1-.36,1.21-.75S60.3,28.72,60,28.62Z"/><path class="cls-2" d="M58.21,53.63l.2-.25c.33-.45.65-.9,1-1.36C59.26,51.91,58.47,53.16,58.21,53.63Z"/><path class="cls-1" d="M15.1,39v0A24.06,24.06,0,0,0,39.15,63h0A24.08,24.08,0,0,1,15.1,39Z"/><path class="cls-1" d="M17.65,28.2c-.14.28-.27.55-.4.83C17.38,28.75,17.51,28.48,17.65,28.2Z"/><path class="cls-1" d="M17.69,28.12l0,.08Z"/><path class="cls-1" d="M17.25,29l-.06.13Z"/><path class="cls-1" d="M16.79,30.12c-.13.32-.25.64-.37,1C16.54,30.76,16.66,30.44,16.79,30.12Z"/><path class="cls-1" d="M17.19,29.16c-.12.27-.23.54-.35.82C17,29.7,17.07,29.43,17.19,29.16Z"/><path class="cls-4" d="M17.69,28.12a24.25,24.25,0,0,1,9.14-9.8,1.67,1.67,0,0,0,1,.33s.46,0-2.49,2.3-2.67,5.5-1.75,3.49,1.75-1.27.28,1.58.77,1.94,1.54,3.69,1-.37,1.41,2.95a2.36,2.36,0,0,0,2.58.55c1.66-.55-.28,1.48-2,3.14s-1.2,2.21-.27,3.22,1.29,1.85.46,3,1.29,1.48,1.84,2.12a3,3,0,0,1-.83,3.69c-1.29.92.65,3,.37,5.81s-.21,4,1.09,4.24-.17-2.49.38-3.69,1.2.83,2.49-2.4c0,0,2.31.56,3.32-2.95,0,0,2-.27,2.4-1.38s-.1-1.84,2.85-4.24-2-4.24-4.7-4.33c0,0-1,.4.74-2.68.75-1.34-1.47-1-2-2.21a4,4,0,0,0-4.42-2.3c-2.58.28-3.32,1.2-3.41-.37s1.1-2.3-.19-2.49-.64-.28.74-1.57a1.31,1.31,0,0,0-1.66.28c-.83.83-2.3-.46-.55-2.3s4.51-3.23,4.33.27,1.11-1.58,1.11-1.58,1.93-2.47,4.33-2.66.92-.27.92-1.1,1.11,1.38,2.45.83-1.44-.74-1.16-1.66,1.85-.65,2.49.55,1.38-.64-.27-2.58-1.39-.74-3,.09-.92,1.29-1.19-.09-.37.09-1.11-.64,1.32-.4,2.4-.28.73-.65.73-.65l1.07-.46s.69,1,1.52.83-.56-1.48.27-1.29,1.94-.55,2,.56-.65,2.58,2.4.92c.61-.34,1-.56,1.3-.69a24.08,24.08,0,0,0-29,12Z"/><path class="cls-1" d="M16.84,30a1.21,1.21,0,0,0-.05.14A1.21,1.21,0,0,1,16.84,30Z"/><path class="cls-4" d="M47.3,16.34a.9.9,0,0,0,.47.74c1.2.74.83.09,2.4,1s.55,1.93,1.75,2.12,2.3,1.84,1.38,1.93-1-1-2.39-1.2.55.46,1.47,1.29.92,1.82,0,2.2-.24,2.51,1.26,2.23,1-1.84,1.78-1.47S56,26.48,57.36,27s-.19,1.29,1.47,1.38,2.49.74,1,1.38-.74,1.2-2-.37-1.16-.06-1.29-1.56-2.21-.1-3.32.09S53,29.25,52,29.43s-1.47-.09-1.2,2.31-.36,2.95-1.47,2.95.92,1.29,1.47,3,.65,2.67,3,2,1.66-.65,1.93.64,1.29-.74,1.48.55-2.31,1.57-.93,2.4.38,2.77-.27,3.23-.19,2.11-1.57,2.85.65,2-.18,2.86-3,1.85-2.22,3.87.84.83,2.59-.64,3.22-4,4.05-3.87c.3,0,.44.26.62.46a24.27,24.27,0,0,1-11.22,9.27,24.06,24.06,0,0,0-.84-44.95Z"/><path class="cls-1" d="M46.89,16.19l.41.15h0Z"/><path class="cls-5" d="M75.29,26c-1.35-2.61-6-3.9-13.34-3.73-1.66,0-3.44.16-5.29.35a8.56,8.56,0,0,1,1.13,1.28c1.46-.13,2.86-.21,4.19-.24,6.37-.15,10.61.9,11.63,2.87,2.17,4.18-9.88,13.14-31.28,19.8C32,49.53,21.56,51.48,13.69,51.66c-6.37.15-10.61-.9-11.63-2.87C.61,46,5.53,41.07,15.33,36.12a11,11,0,0,1,.2-1.73C4.57,39.72-1.63,45.46.37,49.32c1.36,2.61,6,3.9,13.35,3.73,8.08-.19,18.75-2.18,29.27-5.46C64,41.05,78.19,31.56,75.29,26Z"/><path class="cls-5" d="M63.25,46.93l-.66-.73a11.31,11.31,0,0,1-.39,1.41,1.49,1.49,0,0,0,.12.14c4.19,4.8,6.19,8.65,5.48,10.56-1.5,4.07-15.44,0-33.8-12.59-8.87-6.07-16.93-12.95-22.11-18.87C7.7,22.05,5.7,18.2,6.41,16.28c1-2.82,8.07-1.71,18.4,3.42a8.5,8.5,0,0,1,1.13-.87l0,0c-11.22-5.72-19.6-7.37-21-3.51C4,17.83,6.1,22.11,11,27.66,16.27,33.75,24.5,40.78,33.54,47c18,12.34,33.7,17.76,35.71,12.34C70.18,56.76,68.11,52.49,63.25,46.93Z"/><path class="cls-6" d="M52.67,1.92v9.91a.75.75,0,0,0,.75.75h8.19L55.52,22.1l11.91-9.52h8.19a.76.76,0,0,0,.75-.75V1.92a.76.76,0,0,0-.75-.75H53.42A.75.75,0,0,0,52.67,1.92Z"/><path class="cls-6" d="M4.41.81V11.56a.81.81,0,0,0,.81.81H14.1l13,6.24-6.65-6.24h8.88a.81.81,0,0,0,.81-.81V.81A.81.81,0,0,0,29.29,0H5.22A.81.81,0,0,0,4.41.81Z"/><path class="cls-7" d="M55.75,23.76a2.06,2.06,0,1,1-2-2.06A2.05,2.05,0,0,1,55.75,23.76Z"/><circle class="cls-1" cx="53.7" cy="23.76" r="1.03"/><path class="cls-7" d="M62.67,35.62a2.06,2.06,0,1,1-2.06-2.06A2.05,2.05,0,0,1,62.67,35.62Z"/><circle class="cls-1" cx="60.61" cy="35.62" r="1.03"/><path class="cls-7" d="M31.23,20.67a2.05,2.05,0,1,1-2.05-2.05A2.05,2.05,0,0,1,31.23,20.67Z"/><path class="cls-1" d="M30.21,20.67a1,1,0,1,1-1-1A1,1,0,0,1,30.21,20.67Z"/><path class="cls-7" d="M35.11,36.65a2.06,2.06,0,1,1-2.06-2A2.06,2.06,0,0,1,35.11,36.65Z"/><circle class="cls-1" cx="33.05" cy="36.65" r="1.03"/><path class="cls-7" d="M36.27,46.53a2.06,2.06,0,1,1-2.05-2.06A2.05,2.05,0,0,1,36.27,46.53Z"/><path class="cls-1" d="M35.25,46.53a1,1,0,0,1-2.07,0,1,1,0,1,1,2.07,0Z"/><path class="cls-1" d="M12.39,8.13c0,1-.37,1.52-1.12,1.67v1h-.64v-1a1.41,1.41,0,0,1-1.05-.48,2.37,2.37,0,0,1-.36-1.47V7.45h1.1V8c0,.59.16.89.46.89a.42.42,0,0,0,.35-.16,1.05,1.05,0,0,0,.1-.54A1.65,1.65,0,0,0,10.62,7s-.11-.1-.29-.26L10,6.4a2.32,2.32,0,0,1-.83-1.76c0-1,.47-1.58,1.4-1.63V2h.64v1a1.15,1.15,0,0,1,.69.4,2.31,2.31,0,0,1,.36,1.46V5.3H11.22V4.86a1.62,1.62,0,0,0-.1-.67A.35.35,0,0,0,10.78,4a.42.42,0,0,0-.35.13.76.76,0,0,0-.11.48,1.32,1.32,0,0,0,.47,1l.63.57A2.7,2.7,0,0,1,12.39,8.13Z"/><path class="cls-1" d="M14,9.85V3.5a1,1,0,0,1-.43.28,1.47,1.47,0,0,1-.54.1V3a1.63,1.63,0,0,0,.72-.31A1.66,1.66,0,0,0,14.26,2h.92V9.85Z"/><path class="cls-1" d="M19.43,9.38a1.57,1.57,0,0,1-1.35.56,1.56,1.56,0,0,1-1.35-.56,2.7,2.7,0,0,1-.42-1.64V4a2.41,2.41,0,0,1,.42-1.55,1.62,1.62,0,0,1,1.35-.52,1.62,1.62,0,0,1,1.34.52A2.41,2.41,0,0,1,19.85,4V7.74A2.77,2.77,0,0,1,19.43,9.38Zm-1.37-.46a.5.5,0,0,0,.44-.23,1.84,1.84,0,0,0,.15-.93V4c0-.58-.13-.9-.4-1H18a.43.43,0,0,0-.33.17,1.3,1.3,0,0,0-.17.81V7.76a1.86,1.86,0,0,0,.15.94A.48.48,0,0,0,18.06,8.92Z"/><path class="cls-1" d="M23.92,9.38a1.56,1.56,0,0,1-1.35.56,1.56,1.56,0,0,1-1.35-.56,2.7,2.7,0,0,1-.42-1.64V4a2.41,2.41,0,0,1,.42-1.55,1.62,1.62,0,0,1,1.35-.52,1.62,1.62,0,0,1,1.34.52A2.35,2.35,0,0,1,24.34,4V7.74A2.7,2.7,0,0,1,23.92,9.38Zm-1.36-.46A.5.5,0,0,0,23,8.69a1.84,1.84,0,0,0,.15-.93V4c0-.58-.13-.9-.4-1h-.26a.43.43,0,0,0-.33.17,1.3,1.3,0,0,0-.17.81V7.76a1.86,1.86,0,0,0,.15.94A.5.5,0,0,0,22.56,8.92Z"/><path class="cls-6" d="M9.72,69.78V59a.81.81,0,0,1,.81-.81h8.88L32,48.58l-6.3,9.65H34.6a.81.81,0,0,1,.81.81V69.78a.82.82,0,0,1-.81.82H10.53A.82.82,0,0,1,9.72,69.78Z"/><path class="cls-1" d="M17.85,66.5c0,1-.37,1.52-1.12,1.67v1h-.64v-1A1.38,1.38,0,0,1,15,67.72a2.32,2.32,0,0,1-.37-1.47v-.43h1.11v.54c0,.59.15.89.46.89a.37.37,0,0,0,.34-.16,1,1,0,0,0,.11-.54,1.7,1.7,0,0,0-.61-1.23l-.29-.26-.32-.28A2.36,2.36,0,0,1,14.65,63c0-1,.47-1.57,1.4-1.63v-1h.64v1a1.15,1.15,0,0,1,.68.4,2.31,2.31,0,0,1,.36,1.46v.39H16.68v-.44a1.65,1.65,0,0,0-.1-.67.35.35,0,0,0-.34-.22.42.42,0,0,0-.35.14.72.72,0,0,0-.12.47,1.36,1.36,0,0,0,.47,1l.64.57A2.71,2.71,0,0,1,17.85,66.5Z"/><path class="cls-1" d="M19.45,68.22V61.87a1,1,0,0,1-.43.28,1.51,1.51,0,0,1-.54.1v-.88a1.55,1.55,0,0,0,.71-.31,1.58,1.58,0,0,0,.52-.67h.93v7.83Z"/><path class="cls-1" d="M23.4,68.31c-1,0-1.55-.54-1.55-1.61v-1H23v.86c0,.36.07.59.21.67a.46.46,0,0,0,.26.05h0c.26,0,.39-.25.39-.77v-2a2,2,0,0,0-.08-.64.35.35,0,0,0-.35-.21c-.31,0-.46.26-.46.76l-1.05,0v-4h2.89v1.06H23v1.59a.64.64,0,0,1,.31-.27,1.29,1.29,0,0,1,.48-.1,1,1,0,0,1,.95.6A5,5,0,0,1,25,65.2,12.27,12.27,0,0,1,24.91,67a2.08,2.08,0,0,1-.27.77A1.37,1.37,0,0,1,23.4,68.31Z"/><path class="cls-1" d="M29,67.74a1.54,1.54,0,0,1-1.33.57,1.42,1.42,0,0,1-1.28-.53A2.91,2.91,0,0,1,26,66.11V65.6h1.12v.55a2.61,2.61,0,0,0,.1.89.4.4,0,0,0,.43.25.45.45,0,0,0,.46-.3,3.58,3.58,0,0,0,.11-1.06,2.72,2.72,0,0,0-.15-1.07.57.57,0,0,0-.57-.32h-.34v-.91h.33a.58.58,0,0,0,.57-.28,2,2,0,0,0,.16-.93,1.83,1.83,0,0,0-.13-.86.46.46,0,0,0-.42-.23.41.41,0,0,0-.4.24,2.12,2.12,0,0,0-.11.81v.23H26v-.24a2.63,2.63,0,0,1,.38-1.57,1.48,1.48,0,0,1,1.26-.49,1.6,1.6,0,0,1,1.31.51,2.41,2.41,0,0,1,.42,1.55,2.64,2.64,0,0,1-.2,1.08,1.07,1.07,0,0,1-.61.59,1.19,1.19,0,0,1,.63.69A3.41,3.41,0,0,1,29.39,66,3.07,3.07,0,0,1,29,67.74Z"/><path class="cls-6" d="M85.63,54.3V43.56a.81.81,0,0,0-.81-.81H75.94L63,36.5l6.65,6.25H60.75a.81.81,0,0,0-.81.81V54.3a.81.81,0,0,0,.81.81H84.82A.81.81,0,0,0,85.63,54.3Z"/><path class="cls-1" d="M68.08,51.19c0,1-.37,1.52-1.12,1.67v1h-.64v-1a1.38,1.38,0,0,1-1-.49,2.32,2.32,0,0,1-.37-1.47v-.43H66v.54c0,.59.15.89.46.89a.37.37,0,0,0,.34-.16,1,1,0,0,0,.11-.53A1.7,1.7,0,0,0,66.31,50L66,49.75l-.32-.28a2.35,2.35,0,0,1-.82-1.77c0-1,.47-1.57,1.4-1.63v-1h.64v1a1.2,1.2,0,0,1,.68.4A2.31,2.31,0,0,1,68,48v.4h-1v-.44a1.68,1.68,0,0,0-.1-.68.36.36,0,0,0-.34-.22.42.42,0,0,0-.35.14.72.72,0,0,0-.12.47,1.36,1.36,0,0,0,.47,1l.63.58A2.69,2.69,0,0,1,68.08,51.19Z"/><path class="cls-1" d="M70.75,52.91h-1.3a14.51,14.51,0,0,1,.46-2.79c.24-.84.45-1.54.64-2.08l.4-1.16c.08-.22.14-.4.19-.52a1.87,1.87,0,0,0,.07-.23H69V45.08h3.46V46a2.84,2.84,0,0,1-.15.54c-.08.22-.18.5-.31.84A18.87,18.87,0,0,0,70.75,52.91Z"/><path class="cls-1" d="M74.85,53c-1,0-1.55-.53-1.55-1.61v-1h1.12v.85c0,.37.07.59.2.68a.57.57,0,0,0,.26.05h0c.27,0,.4-.26.4-.77v-2a1.68,1.68,0,0,0-.09-.63.35.35,0,0,0-.35-.21c-.31,0-.46.25-.46.76l-1.05-.05v-4h2.89v1.07H74.45v1.58a.52.52,0,0,1,.3-.26,1.13,1.13,0,0,1,.48-.11,1,1,0,0,1,1,.61,5.23,5.23,0,0,1,.26,1.91,12.27,12.27,0,0,1-.09,1.82,2,2,0,0,1-.27.77A1.37,1.37,0,0,1,74.85,53Z"/><path class="cls-1" d="M80.56,52.45a1.91,1.91,0,0,1-2.7,0,2.73,2.73,0,0,1-.42-1.65V47.06a2.43,2.43,0,0,1,.43-1.55,2,2,0,0,1,2.69,0A2.43,2.43,0,0,1,81,47.06V50.8A2.73,2.73,0,0,1,80.56,52.45ZM79.2,52a.5.5,0,0,0,.44-.22,1.92,1.92,0,0,0,.15-.94V47c0-.57-.14-.9-.4-1l-.26,0a.46.46,0,0,0-.34.18,1.35,1.35,0,0,0-.16.81v3.81a1.94,1.94,0,0,0,.15,1A.46.46,0,0,0,79.2,52Z"/><path class="cls-1" d="M61.63,8.63c0,1-.37,1.52-1.12,1.67v1h-.64v-1a1.45,1.45,0,0,1-1-.48,2.37,2.37,0,0,1-.36-1.47V8h1.11v.54c0,.59.15.89.45.89a.41.41,0,0,0,.35-.16,1.05,1.05,0,0,0,.1-.54,1.65,1.65,0,0,0-.61-1.23s-.11-.1-.29-.26l-.31-.29a2.31,2.31,0,0,1-.82-1.76c0-1,.46-1.58,1.39-1.63v-1h.64v1a1.12,1.12,0,0,1,.69.4,2.31,2.31,0,0,1,.36,1.46V5.8H60.47V5.36a1.59,1.59,0,0,0-.11-.67A.35.35,0,0,0,60,4.47a.43.43,0,0,0-.35.13.83.83,0,0,0-.11.48,1.36,1.36,0,0,0,.47,1l.63.57A2.7,2.7,0,0,1,61.63,8.63Z"/><path class="cls-1" d="M64.18,10.44c-1,0-1.55-.54-1.55-1.62v-1h1.11V8.7c0,.36.07.58.21.67a.57.57,0,0,0,.26.05h0c.26,0,.39-.26.39-.77v-2A1.7,1.7,0,0,0,64.53,6a.33.33,0,0,0-.34-.21c-.31,0-.46.25-.46.76l-1,0v-4h2.89V3.59h-1.8V5.18a.64.64,0,0,1,.31-.27,1.12,1.12,0,0,1,.48-.1,1,1,0,0,1,1,.6,5,5,0,0,1,.27,1.91,12.18,12.18,0,0,1-.09,1.82,2.07,2.07,0,0,1-.27.78A1.39,1.39,0,0,1,64.18,10.44Z"/><path class="cls-1" d="M68.41,10.44q-1.56,0-1.56-1.62v-1H68V8.7c0,.36.07.58.21.67a.52.52,0,0,0,.25.05h0c.26,0,.39-.26.39-.77v-2A1.7,1.7,0,0,0,68.76,6a.33.33,0,0,0-.34-.21c-.31,0-.47.25-.47.76l-1,0v-4h2.9V3.59H68V5.18a.64.64,0,0,1,.31-.27,1.06,1.06,0,0,1,.48-.1,1,1,0,0,1,.95.6A5,5,0,0,1,70,7.32a12.18,12.18,0,0,1-.09,1.82,2.07,2.07,0,0,1-.27.78A1.39,1.39,0,0,1,68.41,10.44Z"/></g></g></svg>